<svg xmlns="http://www.w3.org/2000/svg" width="170" height="43" fill="none" viewBox="0 0 170 43">
    <path fill="#9F2241" d="M56.36 23.446c.205.328.533.492.984.492.574.04.984-.574.984-.574l9.714-12.502c.82-.82 1.599-.164 1.599-.164.778.82.205 1.517.205 1.517l-2.173 2.787v.04c-.205.206-.287.452-.287.739 0 .246.082.492.246.697l2.173 2.787 6.886-8.772-2.746-3.525-.492-.656c-.451-.656-1.435-.779-1.435-.779h-4.14c-1.107 0-1.68.78-1.68.78l-11.6 14.878 1.762 2.255zM55.868 15.822l-2.746-3.566c-.574-.902.246-1.558.246-1.558 1.025-.615 1.64.328 1.64.328l2.295 2.951 2.705-3.525-3.115-4.017c-.738-1.065-1.886-.902-1.886-.902h-3.73c-1.188 0-1.721.738-1.721.738l-3.32 4.181 6.886 8.854 2.746-3.484z"/>
    <path fill="#9F2241" d="M66.567 18.855s-.328-.492-.943-.492c-.656 0-.902.45-.902.45L54.885 31.48c-.78.86-1.681.163-1.681.163-.779-.82-.123-1.557-.123-1.557l2.213-2.828v-.041c.205-.205.287-.451.287-.738 0-.246-.082-.492-.246-.697l-2.172-2.787-6.927 8.895 3.853 4.877 6.066.041L68.37 21.191l-1.803-2.336zM67.058 26.438l2.788 3.607c.655.902-.164 1.558-.164 1.558-1.066.738-1.722-.37-1.722-.37l-2.336-2.991-2.705 3.525 3.934 5 6.026-.04 3.853-4.96-6.927-8.813-2.747 3.484zM76.65 22.667c-.82 0-1.476-.656-1.476-1.476s.656-1.475 1.476-1.475 1.476.655 1.476 1.475c0 .82-.656 1.476-1.476 1.476zm0-4.263c-1.558 0-2.787 1.23-2.787 2.746 0 1.517 1.23 2.747 2.787 2.747 1.558 0 2.787-1.23 2.787-2.747 0-1.516-1.23-2.746-2.787-2.746zM61.443 1.27c.82 0 1.476.656 1.476 1.476s-.656 1.476-1.476 1.476-1.476-.656-1.476-1.476.697-1.475 1.476-1.475zm0 4.264c1.558 0 2.787-1.23 2.787-2.747C64.23 1.271 63 0 61.443 0c-1.558 0-2.787 1.23-2.787 2.746 0 1.517 1.23 2.788 2.787 2.788zM44.719 21.15c0-.82.656-1.475 1.475-1.475.82 0 1.476.655 1.476 1.475 0 .82-.656 1.476-1.476 1.476s-1.475-.656-1.475-1.476zm4.304 0c0-1.516-1.23-2.746-2.788-2.746-1.557 0-2.787 1.23-2.787 2.746 0 1.517 1.23 2.747 2.788 2.747 1.516.04 2.787-1.23 2.787-2.747zM61.443 41.071c-.82 0-1.476-.656-1.476-1.475 0-.82.656-1.476 1.476-1.476s1.476.656 1.476 1.476c0 .778-.656 1.475-1.476 1.475zm0-4.263c-1.558 0-2.787 1.23-2.787 2.747 0 1.516 1.23 2.746 2.787 2.746 1.558 0 2.787-1.23 2.787-2.746 0-1.517-1.23-2.747-2.787-2.747z"/>
    <path fill="#BC955C" d="M32.218 2.747H0v21.478c0 11.805 16.068 15.33 16.068 15.33h.04s16.068-3.566 16.068-15.33l.041-21.478zm-.82.778v20.7c0 2.5-.78 4.837-2.337 6.886-1.27 1.68-3.033 3.197-5.287 4.509-3.402 2.008-6.887 2.951-7.706 3.115-.779-.205-4.222-1.107-7.665-3.115-2.255-1.312-4.017-2.828-5.288-4.509C1.558 29.061.78 26.725.78 24.225v-20.7h30.619z"/>
    <path fill="#BC955C" d="M20.003 9.633V7.665h-2.009V9.51h-.778V7.665h-2.09V9.51h-.78V7.665h-2.05v1.968l1.026 1.721c.04.082.04.123.04.205v9.018h.984v-3.239c0-.778.861-1.475 1.804-1.475.984 0 1.803.697 1.803 1.476v3.238h1.025v-3.403V11.6c0-.082.041-.123.082-.205l.943-1.762zM12.502 20.782v-2.993l-.328.246c-.123.082-.287.082-.41-.04l-.45-.288v.041l-.042 1.148c0 .123-.082.246-.164.287.041.04.082.04.123.082.533.41.574 1.025.451 1.517h.82z"/>
    <path fill="#BC955C" d="M16.068 16.683c-.615 0-1.025.45-1.025.655v3.239h2.05v-3.239c.04-.245-.41-.655-1.025-.655z"/>
    <path fill="#BC955C" d="M4.017 20.781c-.123-.245-.205-.532-.246-.901-.123-.656-.082-1.19-.082-1.23 0-.164.123-.287.287-.369l.86-.246-.983-.697c-.123-.082-.164-.205-.164-.328v-1.106c0-.164.082-.287.205-.37l.369-.204v-.37l-.287-.122c-.164-.041-.287-.164-.287-.369v-1.312c0-.204.164-.41.41-.41l1.23-.04c-.042-.328-.042-.78.04-1.148.123-.492.41-1.025.533-1.27l-.082-.452c-.04-.123.041-.205.082-.287.082-.082.164-.123.287-.123h.656c.082 0 .164.041.205.082l1.598 1.025h.78c.122 0 .204.041.286.123.082.082.123.164.123.287l-.082 1.27c0 .124-.04.206-.123.288h.492c.123 0 .205.04.287.122l.205.246.164-.122.287-.574c.082-.123.205-.205.369-.205H12.5v-.205L11.477 10c-.041-.082-.041-.123-.041-.205V7.255c0-.205.164-.41.41-.41H20.412c.205 0 .41.164.41.41v2.46c0 .081-.04.122-.082.204l-1.024 1.722v.246h1.065c.164 0 .287.082.37.205l.286.573.164.124.205-.246c.082-.082.164-.123.287-.123h.492c-.082-.082-.123-.164-.123-.287l-.082-1.271c0-.123.04-.205.123-.287.082-.082.164-.123.287-.123h.738l1.598-1.025c.082-.04.123-.082.205-.082h.656c.123 0 .205.041.287.123.082.082.123.205.082.287l-.082.451c.123.246.41.779.533 1.27.082.37.082.82.04 1.148l1.23.041c.205 0 .41.165.41.41v1.312c0 .164-.082.287-.246.369l-.369.123v.369l.37.205c.122.082.204.205.204.369v1.106c0 .123-.082.246-.164.328l-.983.697.86.246c.164.041.246.205.287.369 0 .041.041.574-.082 1.23-.082.369-.123.655-.246.901h1.475V5.492H2.542v15.29h1.476z"/>
    <path fill="#BC955C" d="M20.945 19.265c.041-.041.082-.041.123-.082-.082-.082-.164-.164-.164-.287v-1.148-.04l-.41.327c-.122.082-.286.082-.45.041l-.328-.205v2.992h.779c-.082-.573-.082-1.147.45-1.598zM26.233 28.98c-.205 0-.41-.165-.41-.41v-2.583c0-.205-.123-.45-.287-.615-.164-.164-.41-.328-.82-.287-.614 0-.983.492-1.024.943v2.582c0 .123-.041.205-.123.287-.082.082-.164.123-.287.123h-2.337c-.205 0-.41-.164-.41-.41v-2.582c0-.205-.122-.45-.287-.615-.163-.164-.41-.328-.82-.287-.245 0-.491.123-.696.246l1.926 9.879c2.706-1.19 5.944-3.198 7.706-6.23l-2.131-.042zM19.92 35.456l-2.705-13.854h-2.172l-2.746 13.854c0 .04 0 .04-.041.082 1.885.779 3.402 1.148 3.853 1.312.45-.123 1.967-.533 3.853-1.312 0-.041 0-.041-.041-.082zM13.444 25.331c-.163-.164-.41-.246-.696-.246h-.041c-.41 0-.656.164-.78.328-.163.164-.286.41-.286.615v2.582c0 .205-.164.41-.41.41H8.895c-.123 0-.205-.04-.287-.123-.082-.082-.123-.164-.123-.287v-2.582c-.041-.45-.41-.943-1.025-.943h-.04c-.41 0-.657.164-.78.328-.164.164-.287.41-.287.615v2.582c0 .205-.164.41-.41.41H3.895c1.722 3.033 4.919 5 7.665 6.23l1.886-9.919z"/>
    <path fill="#BC955C" d="M29.636 21.602h-11.6l.573 2.91c.246-.123.533-.205.82-.205.533 0 1.025.164 1.394.533.328.328.533.779.533 1.147v2.173h1.557v-2.173-.04c.082-.943.861-1.681 1.804-1.681.533 0 1.025.164 1.393.533.328.328.533.779.533 1.147v2.173h2.173c.533-1.189.86-2.5.86-4.017l-.04-2.5zM5.615 28.2v-2.172c0-.41.205-.82.533-1.147.369-.37.86-.533 1.394-.533.942.04 1.721.737 1.803 1.68v2.214h1.558v-2.173c0-.41.205-.82.533-1.147.369-.37.86-.533 1.393-.533.287 0 .574.082.82.205l.574-2.91H2.582v2.5c0 1.516.328 2.869.86 4.017h2.173zM6.558 19.962h.656c.041.082.082.164.082.246v.164c0 .123-.041.287-.041.41H5.001c-.328-.205-.492-1.107-.492-1.804l.983-.287c.164-.04.287-.205.287-.369v-.369c0-.123-.082-.246-.164-.328l-1.147-.82v-.655l.369-.205c.123-.082.205-.205.205-.369v-.86c0-.165-.082-.288-.246-.37l-.37-.123v-.655h1.025l.492.82v1.106l-.328 1.066c-.04.123-.04.246.082.369.082.123.205.164.328.164h.287c.205 0 .37-.123.41-.328.041-.164.123-.697.205-.902.082-.164.369-.533.533-.779.123-.164.123-.369 0-.492l-1.312-1.557c-.04-.246-.082-.78 0-1.19.082-.45.41-.983.492-1.147.041-.082.082-.164.041-.246l-.04-.123h.081l1.599 1.025c.082.041.123.082.205.082h.492l-.041.45-.533.206c-.123.082-.246.205-.246.369v.41c0 .205.164.41.41.41H9.96l.37.368c.122.164.368.164.532.042 0 0 .615-.492.656-.533l.205-.451h.82V14.1s-1.435.492-1.558.533c-.082.041-.164.492-.123.574.041.123 0 .164.164.246 0 0 .41.328.533.369l.41-.41.533.082v1.353l-.533.368-1.68-1.147c-.165-.123-.41-.082-.534.082l-.246.328c-.123.164-.123.41.041.533l.943.901v.738l-.984.41c-.164.082-.246.205-.246.369v.164c0 .205.164.41.41.41h1.148c.205.246.123.574.041.82H8.24c-.082-.082-.123-.246-.164-.451v-.164c0-.246.04-.492.082-.656l.615-.779c.04-.082.082-.164.082-.205l.04-.369c0-.123-.081-.246-.163-.369s-.246-.082-.37-.04l-.983.41c-.123.04-.205.163-.246.286l-.082.41-.574.164c-.164.041-.287.205-.287.369v.164c-.04.205.164.369.37.369zM25.66 19.962h-.657c-.04.082-.082.164-.082.246v.164c0 .123.041.287.041.41h2.255c.328-.205.492-1.107.492-1.804l-.984-.287c-.164-.04-.287-.205-.287-.369v-.369c0-.123.082-.246.164-.328l1.107-.778v-.656l-.37-.205c-.122-.082-.204-.205-.204-.369v-.86c0-.165.082-.288.246-.37l.369-.123v-.655h-1.025l-.492.82v1.106l.328 1.066c.041.123.041.246-.082.369-.082.123-.205.164-.328.164h-.287c-.205 0-.369-.123-.41-.328-.04-.164-.123-.697-.205-.902-.082-.164-.368-.533-.532-.779-.123-.164-.123-.369 0-.492l1.352-1.557c.041-.246.082-.78 0-1.189-.082-.45-.41-.984-.492-1.148-.04-.082-.082-.164-.04-.246l.04-.123h-.082l-1.598 1.025c-.082.041-.123.082-.205.082h-.451l.04.574.534.205c.164.082.246.205.246.369v.41c0 .205-.164.41-.41.41h-1.353l-.369.368c-.123.164-.369.164-.533.041 0 0-.614-.491-.655-.532l-.205-.451h-.82v1.393s1.434.492 1.557.533c.082.041.164.492.123.574-.04.123 0 .164-.164.246 0 0-.41.328-.532.369l-.41-.41h-.574v1.353l.533.328 1.68-1.148c.164-.123.41-.082.533.082l.246.328c.123.164.123.41-.041.533l-.943.86v.738l.984.41c.164.082.246.205.246.369v.164c0 .205-.164.41-.41.41h-1.148c-.205.246-.123.574-.04.82h2.664c.082-.082.123-.246.164-.451v-.164c0-.246-.041-.492-.082-.656l-.615-.779c-.041-.082-.082-.164-.082-.205l-.041-.41c0-.123.082-.246.164-.369.123-.082.246-.082.369-.04l.984.41c.122.04.204.163.245.286l.082.41.574.164c.164.041.287.205.287.369v.164c0 .246-.164.41-.41.41z"/>
    <path fill="#9F2241" d="M87.922 16.478c0-1.517 1.107-2.87 2.746-2.87.902 0 1.476.247 2.05.738l-.41.451c-.41-.369-.902-.655-1.68-.655-1.19 0-2.091 1.024-2.091 2.254v.04c0 1.313.82 2.296 2.172 2.296.656 0 1.189-.246 1.599-.533v-1.393h-1.68v-.533h2.254v2.172c-.492.451-1.271.82-2.214.82-1.64.041-2.746-1.23-2.746-2.787zM99.931 16.478c0-1.27-.901-2.296-2.172-2.296-1.23 0-2.132 1.025-2.132 2.255v.04c0 1.23.902 2.255 2.173 2.255 1.23 0 2.131-1.024 2.131-2.254zm-4.96 0c0-1.517 1.148-2.87 2.788-2.87 1.68 0 2.787 1.312 2.787 2.829v.04c0 1.517-1.148 2.83-2.787 2.83-1.68 0-2.787-1.354-2.787-2.83zM105.137 16.683h-1.721v1.926h1.844c.82 0 1.353-.369 1.353-.984-.041-.573-.533-.942-1.476-.942zm1.148-1.517c0-.533-.451-.902-1.189-.902h-1.68v1.886h1.639c.697 0 1.23-.328 1.23-.984zm-3.525-1.476h2.336c.656 0 1.107.164 1.435.492.205.246.369.533.369.861v.041c0 .738-.451 1.066-.861 1.27.656.206 1.189.575 1.189 1.312v.041c0 .943-.779 1.476-2.009 1.476h-2.418l-.041-5.493zM110.975 13.69h-.615v5.493h.615V13.69zM113.517 13.69h3.976v.574h-3.362v1.886h2.993v.533h-2.993v1.967h3.403v.533h-4.017V13.69zM121.878 16.519c.82 0 1.394-.41 1.394-1.148v-.041c0-.697-.533-1.066-1.394-1.066h-1.68v2.255h1.68zm-2.336-2.829h2.377c.697 0 1.189.205 1.558.533.246.246.41.656.41 1.066v.041c0 .902-.656 1.435-1.476 1.599l1.681 2.254h-.779l-1.599-2.131h-1.516v2.131h-.615l-.041-5.493zM126.141 13.69h.574l3.443 4.427V13.69h.615v5.493h-.492l-3.525-4.509v4.509h-.615V13.69zM137.946 16.478c0-1.27-.902-2.296-2.172-2.296-1.271 0-2.132 1.025-2.132 2.255v.04c0 1.23.902 2.255 2.173 2.255 1.229 0 2.131-1.024 2.131-2.254zm-4.96 0c0-1.517 1.148-2.87 2.788-2.87 1.68 0 2.787 1.312 2.787 2.829v.04c0 1.517-1.148 2.83-2.787 2.83-1.681 0-2.788-1.354-2.788-2.83zM144.3 14.264v4.345h1.312c1.393 0 2.295-.943 2.295-2.131v-.041c0-1.189-.861-2.173-2.295-2.173H144.3zm-.615-.574h1.927c1.721 0 2.91 1.19 2.91 2.706v.04c0 1.517-1.189 2.747-2.91 2.747h-1.927V13.69zM150.448 13.69h3.976v.574h-3.361v1.886h2.992v.533h-2.992v1.967h3.402v.533h-4.017V13.69zM159.383 13.69h.615v4.96h3.074v.533h-3.689V13.69zM168.442 17.174l-1.229-2.787-1.23 2.787h2.459zm-1.557-3.484h.573l2.501 5.534h-.656l-.656-1.435h-2.992l-.656 1.435h-.656l2.542-5.534zM88.8 25.864c0-1.599 1.189-2.87 2.869-2.87 1.025 0 1.64.37 2.172.862l-.778.86c-.41-.41-.861-.614-1.394-.614-.902 0-1.599.778-1.599 1.721v.041c0 .943.656 1.722 1.599 1.722.656 0 1.025-.246 1.435-.656l.778.779c-.573.614-1.188.983-2.254.983-1.64 0-2.828-1.27-2.828-2.828zM96.014 23.118h-1.188v5.492h1.188v-5.492zM97.45 26.276v-3.115h1.188v3.074c0 .902.45 1.353 1.189 1.353.737 0 1.188-.451 1.188-1.312v-3.115h1.189v3.074c0 1.68-.943 2.46-2.418 2.46-1.435 0-2.337-.82-2.337-2.419zM105.77 27.504c.984 0 1.64-.656 1.64-1.64 0-.983-.656-1.64-1.64-1.64h-.943v3.32l.943-.04zm-2.172-4.386h2.131c1.722 0 2.91 1.189 2.91 2.705v.041c0 1.517-1.188 2.746-2.91 2.746h-2.131v-5.492zM112.574 26.315l-.738-1.762-.738 1.762h1.476zm-1.23-3.238h1.107l2.336 5.534h-1.27l-.492-1.23h-2.337l-.492 1.23h-1.229l2.377-5.534zM117.82 27.504c.984 0 1.64-.656 1.64-1.64 0-.983-.656-1.64-1.64-1.64h-.942v3.32l.942-.04zm-2.172-4.386h2.131c1.722 0 2.911 1.189 2.911 2.705v.041c0 1.517-1.189 2.746-2.911 2.746h-2.131v-5.492zM126.387 27.504c.984 0 1.639-.656 1.639-1.64 0-.983-.655-1.64-1.639-1.64h-.943v3.32l.943-.04zm-2.173-4.386h2.132c1.721 0 2.91 1.189 2.91 2.705v.041c0 1.517-1.189 2.746-2.91 2.746h-2.132v-5.492zM130.445 23.118h4.14v1.066h-2.951v1.106h2.582v1.066h-2.582v1.189h2.992v1.065h-4.181v-5.492zM138.11 23.118h1.312l1.434 2.295 1.435-2.295h1.311v5.492h-1.188v-3.607l-1.558 2.337h-.041l-1.516-2.296v3.566h-1.189v-5.492zM147.333 21.314l1.024.451-1.024.943h-.902l.902-1.394zm-2.296 1.804h4.14v1.065h-2.951v1.107h2.582v1.066h-2.582v1.148h2.992v1.065h-4.181v-5.451zM151.924 25.823l-1.845-2.705h1.394l1.147 1.763 1.189-1.763h1.353l-1.845 2.664 1.927 2.828h-1.394l-1.271-1.885-1.229 1.885h-1.353l1.927-2.787zM157.334 23.118h-1.188v5.492h1.188v-5.492zM158.563 25.864c0-1.599 1.189-2.87 2.87-2.87 1.024 0 1.639.37 2.172.862l-.779.86c-.41-.41-.86-.614-1.393-.614-.902 0-1.599.778-1.599 1.721v.041c0 .943.656 1.722 1.599 1.722.656 0 1.024-.246 1.434-.656l.779.779c-.574.614-1.189.983-2.254.983-1.64 0-2.829-1.27-2.829-2.828zM168.729 25.864c0-.984-.696-1.721-1.68-1.721s-1.64.778-1.64 1.721v.041c0 .943.697 1.722 1.681 1.722.984-.041 1.639-.82 1.639-1.763zm-4.549 0c0-1.599 1.229-2.87 2.91-2.87 1.68 0 2.91 1.271 2.91 2.83v.04c0 1.558-1.23 2.828-2.91 2.828-1.681 0-2.91-1.27-2.91-2.828z"/>
</svg>
