<?xml version="1.0" encoding="utf-8"?>
<!-- Generator: Adobe Illustrator 25.4.1, SVG Export Plug-In . SVG Version: 6.00 Build 0)  -->
<svg version="1.1" id="Capa_1" xmlns="http://www.w3.org/2000/svg" xmlns:xlink="http://www.w3.org/1999/xlink" x="0px" y="0px"
	 viewBox="0 0 1080 203.1" style="enable-background:new 0 0 1080 203.1;" xml:space="preserve">
<style type="text/css">
	.st0{fill:#8A2742;}
	.st1{fill:#B3955F;}
</style>
<g>
	<path class="st0" d="M433.5,63.7c3.6,0,6.6-2.9,6.6-6.5c0-3.6-3-6.5-6.6-6.5c-3.6,0-6.6,2.9-6.6,6.5
		C426.9,60.8,429.9,63.7,433.5,63.7L433.5,63.7z M433.5,53.8L433.5,53.8c1.9,0,3.5,1.6,3.5,3.5c0,1.9-1.6,3.5-3.5,3.5
		c-1.9,0-3.5-1.6-3.5-3.5C430.1,55.3,431.6,53.8,433.5,53.8L433.5,53.8z"/>
	<polygon class="st0" points="707.7,136.9 706.6,136.9 706.6,63.7 707.7,63.7 	"/>
	<path class="st0" d="M421.5,105.6c0.5,0.8,1.2,1.2,2.3,1.2c1.4,0,2.3-1.3,2.3-1.3L449,76.3c1.9-2,3.8-0.4,3.8-0.4
		c1.8,1.9,0.5,3.6,0.5,3.6l-5.1,6.5l0,0c-0.4,0.5-0.7,1.1-0.7,1.7c0,0.6,0.2,1.2,0.6,1.6v0l5.2,6.5l16.3-20.6l-6.5-8.2l-1.2-1.6
		c-1.1-1.5-3.4-1.9-3.4-1.9h-9.7c-2.6,0-4,1.8-4,1.8l-27.3,34.8L421.5,105.6L421.5,105.6z"/>
	<path class="st0" d="M420.4,87.8l-6.5-8.3c-1.3-2.1,0.6-3.7,0.6-3.7c2.4-1.4,3.8,0.8,3.8,0.8l5.4,6.9l6.4-8.2l-7.4-9.4
		c-1.8-2.5-4.4-2.2-4.4-2.2h-8.8c-2.8,0-4,1.7-4,1.7l-7.8,9.8L414,95.9L420.4,87.8L420.4,87.8z"/>
	<path class="st0" d="M445.5,94.9c0,0-0.7-1.2-2.2-1.1c-1.5,0-2.1,1-2.1,1L418,124.4c-1.9,2.1-3.9,0.4-3.9,0.4
		c-1.8-1.9-0.3-3.6-0.3-3.6l5.2-6.6l0,0c0.4-0.5,0.7-1.1,0.7-1.7c0-0.6-0.2-1.2-0.6-1.6l0,0l-5.2-6.5l-16.3,20.8l9.1,11.5l14.3,0
		l28.7-36.6L445.5,94.9L445.5,94.9z"/>
	<path class="st0" d="M446.7,112.7l6.6,8.4c1.5,2.1-0.4,3.6-0.4,3.6c-2.5,1.7-4.1-0.8-4.1-0.8l-5.5-7l-6.4,8.2l9.2,11.7l14.2,0
		l9.1-11.6l-16.3-20.7L446.7,112.7L446.7,112.7z"/>
	<path class="st0" d="M469.3,93.9c-3.6,0-6.6,2.9-6.6,6.5c0,3.6,3,6.5,6.6,6.5c3.6,0,6.6-2.9,6.6-6.5
		C475.9,96.8,472.9,93.9,469.3,93.9L469.3,93.9z M469.3,103.8L469.3,103.8c-1.9,0-3.5-1.6-3.5-3.5c0-1.9,1.6-3.5,3.5-3.5
		c1.9,0,3.5,1.6,3.5,3.5C472.8,102.3,471.2,103.8,469.3,103.8L469.3,103.8z"/>
	<path class="st0" d="M404.2,100.3c0-3.6-3-6.5-6.6-6.5c-3.6,0-6.6,2.9-6.6,6.5c0,3.6,3,6.5,6.6,6.5
		C401.3,106.8,404.2,103.9,404.2,100.3L404.2,100.3z M394.2,100.3L394.2,100.3c0-1.9,1.6-3.5,3.5-3.5c1.9,0,3.5,1.6,3.5,3.5
		c0,1.9-1.6,3.5-3.5,3.5C395.7,103.8,394.2,102.2,394.2,100.3L394.2,100.3z"/>
	<path class="st0" d="M433.5,136.9c-3.6,0-6.6,2.9-6.6,6.5c0,3.6,3,6.5,6.6,6.5c3.6,0,6.6-2.9,6.6-6.5
		C440.1,139.8,437.2,136.9,433.5,136.9L433.5,136.9z M433.5,146.9L433.5,146.9c-1.9,0-3.5-1.6-3.5-3.5c0-1.9,1.6-3.5,3.5-3.5
		c1.9,0,3.5,1.6,3.5,3.5C437,145.3,435.4,146.9,433.5,146.9L433.5,146.9z"/>
	<path class="st0" d="M433.5,52.2c-3.6,0-6.6,2.9-6.6,6.5c0,3.6,3,6.5,6.6,6.5c3.6,0,6.6-2.9,6.6-6.5
		C440.1,55.1,437.2,52.2,433.5,52.2L433.5,52.2z M433.5,62.2L433.5,62.2c-1.9,0-3.5-1.6-3.5-3.5c0-1.9,1.6-3.5,3.5-3.5
		c1.9,0,3.5,1.6,3.5,3.5C437,60.6,435.4,62.2,433.5,62.2L433.5,62.2z"/>
	<path class="st1" d="M362.9,59v48.4c0,5.9-1.9,11.3-5.5,16.1c-3,3.9-7.2,7.5-12.4,10.6c-8.1,4.7-16.3,6.9-18.1,7.4
		c-1.8-0.4-10-2.6-18-7.3c-5.3-3.1-9.5-6.6-12.5-10.6c-3.7-4.8-5.5-10.3-5.5-16.1V59H362.9L362.9,59z M364.7,57.2L364.7,57.2H289
		v50.3c0,27.6,37.9,35.9,37.9,35.9h0c0,0,37.9-8.3,37.9-35.9V57.2L364.7,57.2z"/>
	<path class="st1" d="M336,73.3v-4.6h-4.8V73h-1.9v-4.3h-4.9V73h-1.9v-4.3h-4.9v4.6l2.4,4c0.1,0.1,0.1,0.3,0.1,0.5l0,21.1h2.3l0-7.6
		c0-1.8,2-3.4,4.3-3.4c2.2,0,4.3,1.6,4.3,3.4l0,7.6h2.4l0-8c0,0,0-0.1,0-0.1v-4c0,0,0,0,0-0.1l0-2.9v0v-1.3l0-4.8
		c0-0.2,0-0.3,0.1-0.5L336,73.3L336,73.3z"/>
	<path class="st1" d="M318.4,99.5l0-7l-0.8,0.5c-0.3,0.2-0.7,0.2-1,0l-1-0.7c0,0,0,0.1,0,0.1l0,2.7c0,0.3-0.1,0.5-0.4,0.7
		c0.1,0,0.2,0.1,0.3,0.2c1.2,1,1.3,2.4,1.1,3.6H318.4L318.4,99.5z"/>
	<path class="st1" d="M326.8,89.8c-1.4,0-2.4,1-2.4,1.6l0,7.6h4.9l0-7.6C329.3,90.8,328.3,89.8,326.8,89.8L326.8,89.8z"/>
	<path class="st1" d="M298.4,99.5c-0.3-0.6-0.5-1.3-0.6-2.1c-0.2-1.5-0.2-2.8-0.2-2.9c0-0.4,0.3-0.7,0.7-0.9l2-0.6l-2.3-1.6
		c-0.2-0.2-0.4-0.5-0.4-0.8V88c0-0.3,0.2-0.7,0.5-0.8l0.9-0.5v-0.9l-0.8-0.3c-0.4-0.1-0.6-0.5-0.6-0.9l0-3.1c0-0.5,0.4-0.9,0.9-0.9
		l2.9,0c-0.1-0.8-0.1-1.8,0.1-2.7c0.2-1.2,0.9-2.4,1.2-3l-0.2-1.1c0-0.3,0-0.5,0.2-0.7c0.2-0.2,0.4-0.3,0.7-0.3h1.6
		c0.2,0,0.3,0,0.5,0.1l3.8,2.4h1.7c0.3,0,0.5,0.1,0.7,0.3c0.2,0.2,0.3,0.4,0.3,0.7l-0.1,3c0,0.3-0.1,0.5-0.3,0.6l1.2,0
		c0.3,0,0.5,0.1,0.7,0.3l0.5,0.5l0.4-0.3l0.7-1.4c0.2-0.3,0.5-0.5,0.8-0.5h2.5v-0.5l-2.4-4c-0.1-0.1-0.1-0.3-0.1-0.5v-5.8
		c0-0.5,0.4-0.9,0.9-0.9h5.8h1.9h4.9h1.9h5.7c0.5,0,0.9,0.4,0.9,0.9v5.8c0,0.2,0,0.3-0.1,0.5l-2.4,4v0.5h2.5c0.4,0,0.7,0.2,0.8,0.5
		l0.7,1.4l0.4,0.3l0.5-0.5c0.2-0.2,0.4-0.3,0.7-0.3l1.2,0c-0.2-0.2-0.3-0.4-0.3-0.6l-0.1-3c0-0.3,0.1-0.5,0.3-0.7
		c0.2-0.2,0.4-0.3,0.7-0.3h1.7l3.8-2.4c0.1-0.1,0.3-0.1,0.5-0.1h1.6c0.3,0,0.5,0.1,0.7,0.3c0.2,0.2,0.3,0.5,0.2,0.7l-0.2,1.1
		c0.3,0.6,1,1.8,1.2,3c0.2,0.9,0.2,1.9,0.1,2.7l2.9,0c0.5,0,0.9,0.4,0.9,0.9l0,3.1c0,0.4-0.2,0.7-0.6,0.9l-0.8,0.3v0.9l0.9,0.5
		c0.3,0.2,0.5,0.5,0.5,0.8v2.6c0,0.3-0.1,0.6-0.4,0.8l-2.3,1.6l2,0.6c0.4,0.1,0.6,0.5,0.7,0.9c0,0.1,0,1.4-0.2,2.9
		c-0.1,0.8-0.3,1.5-0.6,2.1h3.4c0,0,0,0,0,0V63.6h-63.6v35.8L298.4,99.5L298.4,99.5z"/>
	<path class="st1" d="M338.3,95.9c0.1-0.1,0.2-0.1,0.3-0.2c-0.2-0.2-0.4-0.4-0.4-0.7l0-2.7c0,0,0-0.1,0-0.1l-1,0.7
		c-0.3,0.2-0.7,0.2-1,0l-0.8-0.5l0,7h1.9C336.9,98.3,337,96.9,338.3,95.9L338.3,95.9z"/>
	<path class="st1" d="M350.6,118.6c-0.5,0-0.9-0.4-0.9-0.9v-6.1c0-0.5-0.3-1-0.7-1.4c-0.4-0.3-1-0.8-1.9-0.7c-1.4,0-2.3,1.1-2.4,2.2
		v6c0,0.2-0.1,0.5-0.3,0.7c-0.2,0.2-0.4,0.3-0.7,0.3h-5.5c-0.5,0-0.9-0.4-0.9-0.9v-6.1c0-0.5-0.3-1-0.7-1.4c-0.4-0.3-1-0.8-1.9-0.7
		c-0.6,0-1.2,0.2-1.6,0.6l4.6,23.1c6.4-2.8,14-7.4,18.1-14.6L350.6,118.6L350.6,118.6z"/>
	<path class="st1" d="M335.8,133.8l-6.4-32.5h-5.2l-6.4,32.5c0,0,0,0.1,0,0.1c4.4,1.8,8,2.7,9.1,3.1c1-0.3,4.6-1.2,9-3
		C335.9,133.9,335.9,133.9,335.8,133.8L335.8,133.8z"/>
	<path class="st1" d="M320.6,110.1c-0.4-0.4-1-0.6-1.6-0.6h0c-0.9,0-1.5,0.4-1.9,0.7c-0.4,0.4-0.7,1-0.7,1.4v6.1
		c0,0.5-0.4,0.9-0.9,0.9H310c-0.2,0-0.5-0.1-0.7-0.3c-0.2-0.2-0.3-0.4-0.3-0.7v-6c-0.1-1.1-1-2.2-2.4-2.2h-0.1
		c-0.9,0-1.5,0.4-1.9,0.7c-0.4,0.4-0.7,1-0.7,1.4v6.1c0,0.5-0.4,0.9-0.9,0.9H298c4.1,7.1,11.6,11.7,18,14.6L320.6,110.1L320.6,110.1
		z"/>
	<path class="st1" d="M358.7,101.3h-27.3l1.3,6.8c0.6-0.3,1.3-0.5,2-0.5c1.2,0,2.4,0.4,3.3,1.3c0.8,0.8,1.3,1.8,1.3,2.7v5.1h3.7
		v-5.1c0,0,0-0.1,0-0.1c0.2-2.2,2-3.9,4.2-3.9c1.2,0,2.4,0.4,3.3,1.3c0.8,0.8,1.3,1.8,1.3,2.7v5.1h5.1c1.3-2.8,2-5.9,2-9.4
		L358.7,101.3C358.7,101.3,358.7,101.3,358.7,101.3L358.7,101.3z"/>
	<path class="st1" d="M302.2,116.8v-5.1c0-1,0.5-2,1.3-2.7c0.9-0.8,2-1.3,3.3-1.3c2.2,0,4,1.7,4.2,3.9c0,0,0,0.1,0,0.1v5.1h3.7v-5.1
		c0-1,0.5-2,1.3-2.7c0.9-0.8,2-1.3,3.3-1.3c0.7,0,1.3,0.2,1.9,0.5l1.3-6.8h-27.3v6c0,3.5,0.8,6.7,2,9.4L302.2,116.8L302.2,116.8z"/>
	<path class="st1" d="M304.4,97.6h1.5c0.1,0.2,0.2,0.4,0.2,0.6c0,0.1,0,0.3,0,0.4c0,0.3-0.1,0.6-0.1,0.9h-5.3
		c-0.8-0.5-1.1-2.6-1.2-4.3l2.3-0.7c0.4-0.1,0.7-0.5,0.7-0.9v-0.9c0-0.3-0.1-0.6-0.4-0.8l-2.6-1.8v-1.5l0.9-0.5
		c0.3-0.2,0.5-0.5,0.5-0.8v-2.1c0-0.4-0.2-0.7-0.6-0.9l-0.8-0.3l0-1.5l2.4,0l1.2,1.9l0,2.6l-0.8,2.5c-0.1,0.3,0,0.6,0.1,0.8
		c0.2,0.2,0.5,0.4,0.8,0.4h0.7c0.5,0,0.8-0.3,0.9-0.8c0.1-0.4,0.3-1.6,0.5-2.1c0.2-0.4,0.8-1.3,1.2-1.8c0.3-0.4,0.3-0.9,0-1.2
		l-3.2-3.7c-0.1-0.5-0.2-1.9,0-2.8c0.2-1,0.9-2.3,1.2-2.7c0.1-0.2,0.2-0.4,0.1-0.6l0-0.3h0.2l3.8,2.4c0.1,0.1,0.3,0.1,0.5,0.1h1
		l-0.1,1.4l-1.2,0.4c-0.4,0.1-0.6,0.5-0.6,0.9l0,1c0,0.5,0.4,0.9,0.9,0.9l3.2,0l0.8,0.9c0.3,0.3,0.9,0.4,1.2,0.1
		c0,0,1.5-1.1,1.5-1.3l0.5-1.1h1.9v2.2l0,1.2c0,0-3.4,1.2-3.7,1.3c-0.2,0.1-0.3,1.2-0.3,1.4c0,0.3,0,0.4,0.4,0.6c0,0,1,0.8,1.3,0.9
		l1-0.9l1.3,0.1l0,3.1l-1.2,0.7l-3.9-2.7c-0.4-0.3-1-0.2-1.3,0.2l-0.6,0.8c-0.3,0.4-0.3,0.9,0.1,1.2l2.2,2.1l0,1.7l-2.2,1
		c-0.3,0.1-0.6,0.5-0.6,0.8v0.4c0,0.5,0.4,0.9,0.9,0.9h2.7c0.5,0.6,0.3,1.4,0.1,1.9h-6.2c-0.2-0.2-0.3-0.6-0.4-1c0-0.1,0-0.2,0-0.4
		c0-0.6,0.1-1.2,0.1-1.5l1.4-1.8c0.1-0.2,0.2-0.3,0.2-0.5l0-0.9c0-0.3-0.1-0.6-0.4-0.8c-0.3-0.2-0.6-0.2-0.9-0.1l-2.3,0.9
		c-0.3,0.1-0.5,0.4-0.6,0.7l-0.1,0.9l-1.4,0.4c-0.4,0.1-0.7,0.5-0.7,0.9v0.4C303.4,97.1,303.8,97.6,304.4,97.6L304.4,97.6z"/>
	<path class="st1" d="M349.3,97.6h-1.5c-0.1,0.2-0.2,0.4-0.2,0.6c0,0.1,0,0.3,0,0.4c0,0.3,0.1,0.6,0.1,0.9h5.3
		c0.8-0.5,1.1-2.6,1.2-4.3l-2.3-0.7c-0.4-0.1-0.7-0.5-0.7-0.9v-0.9c0-0.3,0.1-0.6,0.4-0.8l2.6-1.8v-1.5l-0.9-0.5
		c-0.3-0.2-0.5-0.5-0.5-0.8v-2.1c0-0.4,0.2-0.7,0.6-0.9l0.8-0.3l0-1.5l-2.4,0l-1.2,1.9l0,2.6l0.8,2.5c0.1,0.3,0,0.6-0.1,0.8
		c-0.2,0.2-0.5,0.4-0.8,0.4h-0.7c-0.5,0-0.8-0.3-0.9-0.8c-0.1-0.4-0.3-1.6-0.5-2.1c-0.2-0.4-0.8-1.3-1.2-1.8c-0.3-0.4-0.3-0.9,0-1.2
		l3.2-3.7c0.1-0.5,0.2-1.9,0-2.8c-0.2-1-0.9-2.3-1.2-2.7c-0.1-0.2-0.2-0.4-0.1-0.6l0-0.3h-0.2l-3.8,2.4c-0.1,0.1-0.3,0.1-0.5,0.1h-1
		l0.1,1.4l1.2,0.4c0.4,0.1,0.6,0.5,0.6,0.9l0,1c0,0.5-0.4,0.9-0.9,0.9l-3.2,0l-0.8,0.9c-0.3,0.3-0.9,0.4-1.2,0.1
		c0,0-1.5-1.1-1.5-1.3l-0.5-1.1h-1.9v2.2v1.2c0,0,3.4,1.2,3.7,1.3c0.2,0.1,0.3,1.2,0.3,1.4c0,0.3,0,0.4-0.4,0.6c0,0-1,0.8-1.3,0.9
		l-1-0.9l-1.3,0.1l0,3.1l1.3,0.7l3.9-2.7c0.4-0.3,1-0.2,1.3,0.2l0.6,0.8c0.3,0.4,0.3,0.9-0.1,1.2l-2.2,2.1l0,1.7l2.2,1
		c0.3,0.1,0.6,0.5,0.6,0.8v0.4c0,0.5-0.4,0.9-0.9,0.9h-2.7c-0.5,0.6-0.3,1.4-0.1,1.9h6.2c0.2-0.2,0.3-0.6,0.4-1c0-0.1,0-0.2,0-0.4
		c0-0.6-0.1-1.2-0.1-1.5l-1.4-1.8c-0.1-0.2-0.2-0.3-0.2-0.5l0-0.9c0-0.3,0.1-0.6,0.4-0.8c0.3-0.2,0.6-0.2,0.9-0.1l2.3,0.9
		c0.3,0.1,0.5,0.4,0.6,0.7l0.1,0.9l1.4,0.4c0.4,0.1,0.7,0.5,0.7,0.9v0.4C350.3,97.1,349.9,97.6,349.3,97.6L349.3,97.6z"/>
	<path class="st0" d="M495.8,89.3L495.8,89.3c0-3.6,2.6-6.7,6.5-6.7c2.2,0,3.5,0.6,4.8,1.7l-0.9,1.1c-1-0.9-2.1-1.5-3.9-1.5
		c-2.9,0-4.9,2.4-4.9,5.3v0c0,3.1,2,5.3,5.1,5.3c1.5,0,2.8-0.6,3.7-1.3v-3.2h-3.9v-1.3h5.3V94c-1.2,1.1-3,2-5.2,2
		C498.3,95.9,495.8,93,495.8,89.3L495.8,89.3z"/>
	<path class="st0" d="M512.4,89.3L512.4,89.3c0-3.6,2.7-6.7,6.6-6.7c3.9,0,6.6,3.1,6.6,6.6v0c0,3.5-2.7,6.6-6.6,6.6
		C515,95.9,512.4,92.9,512.4,89.3L512.4,89.3z M524,89.3L524,89.3L524,89.3c0-3-2.1-5.3-5.1-5.3c-3,0-5.1,2.4-5.1,5.3v0
		c0,2.9,2.1,5.3,5.1,5.3C521.9,94.6,524,92.3,524,89.3L524,89.3z"/>
	<path class="st0" d="M530.7,82.9h5.5c1.5,0,2.6,0.4,3.4,1.1c0.5,0.6,0.8,1.2,0.8,2.1v0c0,1.7-1,2.5-2,3c1.5,0.5,2.8,1.3,2.8,3.1v0
		c0,2.2-1.9,3.5-4.7,3.5h-5.7L530.7,82.9L530.7,82.9z M539,86.3L539,86.3c0-1.3-1-2.1-2.9-2.1h-3.9v4.4h3.8
		C537.7,88.6,539,87.8,539,86.3L539,86.3L539,86.3z M536.3,89.9L536.3,89.9h-4.1v4.5h4.3c2,0,3.2-0.9,3.2-2.3v0
		C539.7,90.7,538.5,89.9,536.3,89.9L536.3,89.9z"/>
	<polygon class="st0" points="546.4,82.9 547.8,82.9 547.8,95.7 546.4,95.7 	"/>
	<polygon class="st0" points="553.7,82.9 563,82.9 563,84.2 555.2,84.2 555.2,88.6 562.2,88.6 562.2,89.9 555.2,89.9 555.2,94.4 
		563.1,94.4 563.1,95.7 553.7,95.7 	"/>
	<path class="st0" d="M568,82.9h5.5c1.6,0,2.9,0.5,3.7,1.3c0.6,0.6,1,1.5,1,2.5v0c0,2.1-1.5,3.4-3.5,3.7l4,5.2h-1.8l-3.7-5h-3.7v5
		H568L568,82.9L568,82.9z M573.4,89.4L573.4,89.4c1.9,0,3.3-1,3.3-2.6v0c0-1.6-1.2-2.5-3.3-2.5h-4v5.2L573.4,89.4L573.4,89.4z"/>
	<polygon class="st0" points="583.4,82.9 584.8,82.9 592.9,93.2 592.9,82.9 594.3,82.9 594.3,95.7 593.2,95.7 584.9,85.2 
		584.9,95.7 583.4,95.7 	"/>
	<path class="st0" d="M599.6,89.3L599.6,89.3c0-3.6,2.7-6.7,6.6-6.7c3.9,0,6.6,3.1,6.6,6.6v0c0,3.5-2.7,6.6-6.6,6.6
		S599.6,92.9,599.6,89.3L599.6,89.3z M611.2,89.3L611.2,89.3L611.2,89.3c0-3-2.1-5.3-5.1-5.3c-3,0-5.1,2.4-5.1,5.3v0
		c0,2.9,2.1,5.3,5.1,5.3C609.1,94.6,611.2,92.3,611.2,89.3L611.2,89.3z"/>
	<path class="st0" d="M624.7,82.9h4.5c4.1,0,6.9,2.8,6.9,6.4v0c0,3.6-2.8,6.4-6.9,6.4h-4.5V82.9L624.7,82.9z M626.1,84.2L626.1,84.2
		v10.2h3c3.3,0,5.3-2.2,5.3-5v0c0-2.8-2.1-5.1-5.3-5.1L626.1,84.2L626.1,84.2z"/>
	<polygon class="st0" points="640.6,82.9 650,82.9 650,84.2 642.1,84.2 642.1,88.6 649.1,88.6 649.1,89.9 642.1,89.9 642.1,94.4 
		650,94.4 650,95.7 640.6,95.7 	"/>
	<polygon class="st0" points="661.6,82.9 663.1,82.9 663.1,94.4 670.4,94.4 670.4,95.7 661.6,95.7 	"/>
	<path class="st0" d="M679.3,82.8h1.4l5.9,12.9H685l-1.5-3.4h-7l-1.5,3.4h-1.5L679.3,82.8L679.3,82.8z M682.9,91L682.9,91l-2.9-6.5
		l-3,6.5H682.9L682.9,91z"/>
	<path class="st0" d="M495.6,111.4L495.6,111.4c0-3.7,2.8-6.7,6.7-6.7c2.4,0,3.9,0.8,5.1,2l-1.8,2.1c-1-0.9-2-1.5-3.3-1.5
		c-2.2,0-3.7,1.8-3.7,4v0c0,2.2,1.5,4,3.7,4c1.5,0,2.4-0.6,3.4-1.5l1.8,1.8c-1.3,1.4-2.8,2.3-5.3,2.3
		C498.4,118,495.6,115,495.6,111.4L495.6,111.4z"/>
	<polygon class="st0" points="509.8,104.9 512.7,104.9 512.7,117.7 509.8,117.7 	"/>
	<path class="st0" d="M515.9,112.2v-7.3h2.8v7.3c0,2.1,1.1,3.2,2.8,3.2c1.7,0,2.8-1,2.8-3.1v-7.4h2.8v7.2c0,3.9-2.2,5.8-5.7,5.8
		C518.1,117.9,515.9,116,515.9,112.2L515.9,112.2z"/>
	<path class="st0" d="M530.4,104.9h5c4.1,0,6.9,2.8,6.9,6.4v0c0,3.6-2.8,6.4-6.9,6.4h-5V104.9L530.4,104.9z M535.4,115.2
		L535.4,115.2c2.3,0,3.9-1.6,3.9-3.8v0c0-2.3-1.6-3.9-3.9-3.9h-2.2v7.7L535.4,115.2L535.4,115.2z"/>
	<path class="st0" d="M548.6,104.8h2.6l5.5,12.9h-3l-1.2-2.9h-5.5l-1.2,2.9h-2.9L548.6,104.8L548.6,104.8z M551.6,112.4L551.6,112.4
		l-1.7-4.2l-1.7,4.2H551.6L551.6,112.4z"/>
	<path class="st0" d="M558.8,104.9h5c4.1,0,6.9,2.8,6.9,6.4v0c0,3.6-2.8,6.4-6.9,6.4h-5V104.9L558.8,104.9z M563.8,115.2
		L563.8,115.2c2.3,0,3.9-1.6,3.9-3.8v0c0-2.3-1.6-3.9-3.9-3.9h-2.2v7.7L563.8,115.2L563.8,115.2z"/>
	<path class="st0" d="M578.9,104.9h5c4.1,0,6.9,2.8,6.9,6.4v0c0,3.6-2.8,6.4-6.9,6.4h-5V104.9L578.9,104.9z M584,115.2L584,115.2
		c2.3,0,3.9-1.6,3.9-3.8v0c0-2.3-1.6-3.9-3.9-3.9h-2.2v7.7L584,115.2L584,115.2z"/>
	<polygon class="st0" points="593.5,104.9 603.3,104.9 603.3,107.4 596.3,107.4 596.3,110 602.4,110 602.4,112.5 596.3,112.5 
		596.3,115.2 603.3,115.2 603.3,117.7 593.5,117.7 	"/>
	<polygon class="st0" points="611.6,104.9 614.6,104.9 618,110.3 621.4,104.9 624.5,104.9 624.5,117.7 621.7,117.7 621.7,109.4 
		618,114.8 618,114.8 614.4,109.4 614.4,117.7 611.6,117.7 	"/>
	<path class="st0" d="M627.9,104.9h9.7v2.5h-6.9v2.6h6.1v2.5h-6.1v2.7h7v2.5h-9.8V104.9L627.9,104.9z M633.3,100.6L633.3,100.6
		l2.4,1l-2.4,2.2h-2.1L633.3,100.6L633.3,100.6z"/>
	<polygon class="st0" points="644,111.2 639.7,104.9 643,104.9 645.7,109.1 648.5,104.9 651.7,104.9 647.4,111.2 651.9,117.7 
		648.6,117.7 645.7,113.3 642.8,117.7 639.5,117.7 	"/>
	<polygon class="st0" points="654.1,104.9 656.9,104.9 656.9,117.7 654.1,117.7 	"/>
	<path class="st0" d="M659.7,111.4L659.7,111.4c0-3.7,2.8-6.7,6.7-6.7c2.4,0,3.9,0.8,5.1,2l-1.8,2.1c-1-0.9-2-1.5-3.3-1.5
		c-2.2,0-3.7,1.8-3.7,4v0c0,2.2,1.5,4,3.7,4c1.5,0,2.4-0.6,3.4-1.5l1.8,1.8c-1.3,1.4-2.8,2.3-5.3,2.3
		C662.5,118,659.7,115,659.7,111.4L659.7,111.4z"/>
	<path class="st0" d="M672.9,111.4L672.9,111.4c0-3.7,2.9-6.7,6.9-6.7c4,0,6.8,3,6.8,6.6v0c0,3.7-2.9,6.6-6.9,6.6
		C675.8,118,672.9,115,672.9,111.4L672.9,111.4z M683.7,111.4L683.7,111.4L683.7,111.4c0-2.2-1.6-4.1-3.9-4.1c-2.3,0-3.9,1.8-3.9,4
		v0c0,2.2,1.6,4,3.9,4C682.1,115.4,683.7,113.6,683.7,111.4L683.7,111.4z"/>
	<path class="st0" d="M728.5,87h10.3c8.3,0,14,5.6,14,13v0.1c0,7.4-5.7,13.1-14,13.1h-10.3V87L728.5,87z M738.7,108L738.7,108
		c4.7,0,7.9-3.2,7.9-7.8v-0.1c0-4.6-3.2-7.9-7.9-7.9h-4.5V108H738.7L738.7,108z"/>
	<polygon class="st0" points="758.3,87 764,87 764,113.2 758.3,113.2 	"/>
	<polygon class="st0" points="770.9,87 790.9,87 790.9,92.2 776.6,92.2 776.6,97.8 789.2,97.8 789.2,103 776.6,103 776.6,113.2 
		770.9,113.2 	"/>
</g>
</svg>
